<mxfile host="65bd71144e">
    <diagram id="XfHshoHZC61MULJ7V2eH" name="第 1 页">
        <mxGraphModel dx="1748" dy="1092" grid="1" gridSize="10" guides="1" tooltips="1" connect="1" arrows="1" fold="1" page="1" pageScale="1" pageWidth="827" pageHeight="1169" math="0" shadow="0">
            <root>
                <mxCell id="0"/>
                <mxCell id="1" parent="0"/>
                <mxCell id="2" value="&lt;meta charset=&quot;utf-8&quot;&gt;&lt;a style=&quot;text-decoration: none; color: rgb(41, 98, 255); align-items: center; display: flex; flex-direction: column; flex: 1 1 0%; height: 464.234px; justify-self: center; position: relative; width: 619px; font-family: Roboto, HelveticaNeue, Arial, sans-serif; font-style: normal; font-variant-caps: normal; font-weight: 400; letter-spacing: normal; text-align: start; text-indent: 0px; text-transform: none; word-spacing: 0px; text-size-adjust: auto; -webkit-text-stroke-width: 0px; background-color: rgb(241, 243, 244);&quot; data-ved=&quot;0CA4QjRxqFwoTCKito_m9ooEDFQAAAAAdAAAAABAI&quot; class=&quot;Du2c7e&quot; aria-label=&quot;访问Lecturio&quot; href=&quot;https://www.google.com.hk/url?sa=i&amp;amp;url=https%3A%2F%2Fwww.lecturio.com%2Fconcepts%2Fretroviridae-hiv%2F&amp;amp;psig=AOvVaw2nDTagBs36YayTHiYikg02&amp;amp;ust=1694519116092000&amp;amp;source=images&amp;amp;cd=vfe&amp;amp;opi=89978449&amp;amp;ved=0CA4QjRxqFwoTCKito_m9ooEDFQAAAAAdAAAAABAI&quot; target=&quot;_blank&quot; rel=&quot;noopener&quot; tabindex=&quot;0&quot; role=&quot;link&quot;&gt;&lt;img style=&quot;border: none; flex: 1 1 0%; min-height: 0px; min-width: 0px; object-fit: contain; width: 619px; background-color: rgb(255, 255, 255); background-image: linear-gradient(45deg, rgb(239, 239, 239) 25%, rgba(239, 239, 239, 0) 25%, rgba(239, 239, 239, 0) 75%, rgb(239, 239, 239) 75%, rgb(239, 239, 239)), linear-gradient(45deg, rgb(239, 239, 239) 25%, rgba(239, 239, 239, 0) 25%, rgba(239, 239, 239, 0) 75%, rgb(239, 239, 239) 75%, rgb(239, 239, 239)); background-size: 21px 21px; max-width: 1000px; height: 464px; margin: 0px; -webkit-user-select: text; -webkit-user-drag: auto; background-position: 0px 0px, 10px 10px;&quot; aria-hidden=&quot;false&quot; alt=&quot;Human Immunodeficiency Virus (HIV) | Concise Medical Knowledge&quot; class=&quot;r48jcc pT0Scc iPVvYb&quot; src=&quot;https://cdn.lecturio.com/assets/Diagram-of-the-HIV-1-virion.png&quot;&gt;&lt;img style=&quot;border: none; flex: 1 1 0%; min-height: 0px; min-width: 0px; object-fit: contain; width: 619px; max-width: 1000px; height: 464px; margin: 0px; -webkit-user-select: text; -webkit-user-drag: auto; position: absolute; visibility: hidden;&quot; data-iml=&quot;76102&quot; alt=&quot;Human Immunodeficiency Virus (HIV) | Concise Medical Knowledge&quot; class=&quot;r48jcc pT0Scc&quot; src=&quot;https://encrypted-tbn0.gstatic.com/images?q=tbn:ANd9GcR5McvZwnX0wmlPFKbkV805wi5xZzQPklY4pw&amp;amp;usqp=CAU&quot;&gt;&lt;/a&gt;&lt;br class=&quot;Apple-interchange-newline&quot;&gt;" style="rounded=0;whiteSpace=wrap;html=1;" vertex="1" parent="1">
                    <mxGeometry x="260" y="280" width="290" height="330" as="geometry"/>
                </mxCell>
            </root>
        </mxGraphModel>
    </diagram>
</mxfile>